<svg width="32" height="32" viewBox="0 0 32 32" xmlns="http://www.w3.org/2000/svg">
<rect width="32" height="32" fill="rgb(1,236,20)" />
<rect x="0" y="0" width="1" height="1" fill="rgb(0,0,0)" />
<rect x="1" y="0" width="1" height="1" fill="rgb(0,0,0)" />
<rect x="2" y="0" width="1" height="1" fill="rgb(0,0,0)" />
<rect x="3" y="0" width="1" height="1" fill="rgb(0,0,0)" />
<rect x="4" y="0" width="1" height="1" fill="rgb(0,0,0)" />
<rect x="5" y="0" width="1" height="1" fill="rgb(0,0,0)" />
<rect x="6" y="0" width="1" height="1" fill="rgb(0,0,0)" />
<rect x="7" y="0" width="1" height="1" fill="rgb(0,0,0)" />
<rect x="8" y="0" width="1" height="1" fill="rgb(0,0,0)" />
<rect x="9" y="0" width="1" height="1" fill="rgb(0,0,0)" />
<rect x="10" y="0" width="1" height="1" fill="rgb(0,0,0)" />
<rect x="11" y="0" width="1" height="1" fill="rgb(0,0,0)" />
<rect x="12" y="0" width="1" height="1" fill="rgb(0,0,0)" />
<rect x="13" y="0" width="1" height="1" fill="rgb(0,0,0)" />
<rect x="14" y="0" width="1" height="1" fill="rgb(0,0,0)" />
<rect x="15" y="0" width="1" height="1" fill="rgb(0,0,0)" />
<rect x="16" y="0" width="1" height="1" fill="rgb(0,0,0)" />
<rect x="17" y="0" width="1" height="1" fill="rgb(0,0,0)" />
<rect x="18" y="0" width="1" height="1" fill="rgb(0,0,0)" />
<rect x="19" y="0" width="1" height="1" fill="rgb(0,0,0)" />
<rect x="20" y="0" width="1" height="1" fill="rgb(0,0,0)" />
<rect x="21" y="0" width="1" height="1" fill="rgb(0,0,0)" />
<rect x="22" y="0" width="1" height="1" fill="rgb(0,0,0)" />
<rect x="23" y="0" width="1" height="1" fill="rgb(0,0,0)" />
<rect x="24" y="0" width="1" height="1" fill="rgb(0,0,0)" />
<rect x="25" y="0" width="1" height="1" fill="rgb(0,0,0)" />
<rect x="26" y="0" width="1" height="1" fill="rgb(0,0,0)" />
<rect x="27" y="0" width="1" height="1" fill="rgb(0,0,0)" />
<rect x="28" y="0" width="1" height="1" fill="rgb(0,0,0)" />
<rect x="29" y="0" width="1" height="1" fill="rgb(0,0,0)" />
<rect x="30" y="0" width="1" height="1" fill="rgb(0,0,0)" />
<rect x="31" y="0" width="1" height="1" fill="rgb(0,0,0)" />
<rect x="31" y="1" width="1" height="1" fill="rgb(0,0,0)" />
<rect x="31" y="2" width="1" height="1" fill="rgb(0,0,0)" />
<rect x="31" y="3" width="1" height="1" fill="rgb(0,0,0)" />
<rect x="31" y="4" width="1" height="1" fill="rgb(0,0,0)" />
<rect x="31" y="5" width="1" height="1" fill="rgb(0,0,0)" />
<rect x="31" y="6" width="1" height="1" fill="rgb(0,0,0)" />
<rect x="31" y="7" width="1" height="1" fill="rgb(0,0,0)" />
<rect x="31" y="8" width="1" height="1" fill="rgb(0,0,0)" />
<rect x="31" y="9" width="1" height="1" fill="rgb(0,0,0)" />
<rect x="31" y="10" width="1" height="1" fill="rgb(0,0,0)" />
<rect x="31" y="11" width="1" height="1" fill="rgb(0,0,0)" />
<rect x="31" y="12" width="1" height="1" fill="rgb(0,0,0)" />
<rect x="31" y="13" width="1" height="1" fill="rgb(0,0,0)" />
<rect x="31" y="14" width="1" height="1" fill="rgb(0,0,0)" />
<rect x="31" y="15" width="1" height="1" fill="rgb(0,0,0)" />
<rect x="31" y="16" width="1" height="1" fill="rgb(0,0,0)" />
<rect x="31" y="17" width="1" height="1" fill="rgb(0,0,0)" />
<rect x="31" y="18" width="1" height="1" fill="rgb(0,0,0)" />
<rect x="31" y="19" width="1" height="1" fill="rgb(0,0,0)" />
<rect x="31" y="20" width="1" height="1" fill="rgb(0,0,0)" />
<rect x="31" y="21" width="1" height="1" fill="rgb(0,0,0)" />
<rect x="31" y="22" width="1" height="1" fill="rgb(0,0,0)" />
<rect x="31" y="23" width="1" height="1" fill="rgb(0,0,0)" />
<rect x="31" y="24" width="1" height="1" fill="rgb(0,0,0)" />
<rect x="31" y="25" width="1" height="1" fill="rgb(0,0,0)" />
<rect x="31" y="26" width="1" height="1" fill="rgb(0,0,0)" />
<rect x="31" y="27" width="1" height="1" fill="rgb(0,0,0)" />
<rect x="31" y="28" width="1" height="1" fill="rgb(0,0,0)" />
<rect x="31" y="29" width="1" height="1" fill="rgb(0,0,0)" />
<rect x="31" y="30" width="1" height="1" fill="rgb(0,0,0)" />
<rect x="31" y="31" width="1" height="1" fill="rgb(0,0,0)" />
<rect x="30" y="31" width="1" height="1" fill="rgb(0,0,0)" />
<rect x="29" y="31" width="1" height="1" fill="rgb(0,0,0)" />
<rect x="28" y="31" width="1" height="1" fill="rgb(0,0,0)" />
<rect x="27" y="31" width="1" height="1" fill="rgb(0,0,0)" />
<rect x="26" y="31" width="1" height="1" fill="rgb(0,0,0)" />
<rect x="25" y="31" width="1" height="1" fill="rgb(0,0,0)" />
<rect x="24" y="31" width="1" height="1" fill="rgb(0,0,0)" />
<rect x="23" y="31" width="1" height="1" fill="rgb(0,0,0)" />
<rect x="22" y="31" width="1" height="1" fill="rgb(0,0,0)" />
<rect x="21" y="31" width="1" height="1" fill="rgb(0,0,0)" />
<rect x="20" y="31" width="1" height="1" fill="rgb(0,0,0)" />
<rect x="19" y="31" width="1" height="1" fill="rgb(0,0,0)" />
<rect x="18" y="31" width="1" height="1" fill="rgb(0,0,0)" />
<rect x="17" y="31" width="1" height="1" fill="rgb(0,0,0)" />
<rect x="16" y="31" width="1" height="1" fill="rgb(0,0,0)" />
<rect x="15" y="31" width="1" height="1" fill="rgb(0,0,0)" />
<rect x="14" y="31" width="1" height="1" fill="rgb(0,0,0)" />
<rect x="13" y="31" width="1" height="1" fill="rgb(0,0,0)" />
<rect x="12" y="31" width="1" height="1" fill="rgb(0,0,0)" />
<rect x="11" y="31" width="1" height="1" fill="rgb(0,0,0)" />
<rect x="10" y="31" width="1" height="1" fill="rgb(0,0,0)" />
<rect x="9" y="31" width="1" height="1" fill="rgb(0,0,0)" />
<rect x="8" y="31" width="1" height="1" fill="rgb(0,0,0)" />
<rect x="7" y="31" width="1" height="1" fill="rgb(0,0,0)" />
<rect x="6" y="31" width="1" height="1" fill="rgb(0,0,0)" />
<rect x="5" y="31" width="1" height="1" fill="rgb(0,0,0)" />
<rect x="4" y="31" width="1" height="1" fill="rgb(0,0,0)" />
<rect x="3" y="31" width="1" height="1" fill="rgb(0,0,0)" />
<rect x="2" y="31" width="1" height="1" fill="rgb(0,0,0)" />
<rect x="1" y="31" width="1" height="1" fill="rgb(0,0,0)" />
<rect x="0" y="31" width="1" height="1" fill="rgb(0,0,0)" />
<rect x="0" y="30" width="1" height="1" fill="rgb(0,0,0)" />
<rect x="0" y="29" width="1" height="1" fill="rgb(0,0,0)" />
<rect x="0" y="28" width="1" height="1" fill="rgb(0,0,0)" />
<rect x="0" y="27" width="1" height="1" fill="rgb(0,0,0)" />
<rect x="0" y="26" width="1" height="1" fill="rgb(0,0,0)" />
<rect x="0" y="25" width="1" height="1" fill="rgb(0,0,0)" />
<rect x="0" y="24" width="1" height="1" fill="rgb(0,0,0)" />
<rect x="0" y="23" width="1" height="1" fill="rgb(0,0,0)" />
<rect x="0" y="22" width="1" height="1" fill="rgb(0,0,0)" />
<rect x="0" y="21" width="1" height="1" fill="rgb(0,0,0)" />
<rect x="0" y="20" width="1" height="1" fill="rgb(0,0,0)" />
<rect x="0" y="19" width="1" height="1" fill="rgb(0,0,0)" />
<rect x="0" y="18" width="1" height="1" fill="rgb(0,0,0)" />
<rect x="0" y="17" width="1" height="1" fill="rgb(0,0,0)" />
<rect x="0" y="16" width="1" height="1" fill="rgb(0,0,0)" />
<rect x="0" y="15" width="1" height="1" fill="rgb(0,0,0)" />
<rect x="0" y="14" width="1" height="1" fill="rgb(0,0,0)" />
<rect x="0" y="13" width="1" height="1" fill="rgb(0,0,0)" />
<rect x="0" y="12" width="1" height="1" fill="rgb(0,0,0)" />
<rect x="0" y="11" width="1" height="1" fill="rgb(0,0,0)" />
<rect x="0" y="10" width="1" height="1" fill="rgb(0,0,0)" />
<rect x="0" y="9" width="1" height="1" fill="rgb(0,0,0)" />
<rect x="0" y="8" width="1" height="1" fill="rgb(0,0,0)" />
<rect x="0" y="7" width="1" height="1" fill="rgb(0,0,0)" />
<rect x="0" y="6" width="1" height="1" fill="rgb(0,0,0)" />
<rect x="0" y="5" width="1" height="1" fill="rgb(0,0,0)" />
<rect x="0" y="4" width="1" height="1" fill="rgb(0,0,0)" />
<rect x="0" y="3" width="1" height="1" fill="rgb(0,0,0)" />
<rect x="0" y="2" width="1" height="1" fill="rgb(0,0,0)" />
<rect x="0" y="1" width="1" height="1" fill="rgb(0,0,0)" />
<rect x="2" y="9" width="1" height="1" fill="rgb(0,0,0)" />
<rect x="3" y="9" width="1" height="1" fill="rgb(0,0,0)" />
<rect x="4" y="9" width="1" height="1" fill="rgb(0,0,0)" />
<rect x="5" y="9" width="1" height="1" fill="rgb(0,0,0)" />
<rect x="6" y="9" width="1" height="1" fill="rgb(0,0,0)" />
<rect x="7" y="9" width="1" height="1" fill="rgb(0,0,0)" />
<rect x="8" y="9" width="1" height="1" fill="rgb(0,0,0)" />
<rect x="9" y="9" width="1" height="1" fill="rgb(0,0,0)" />
<rect x="9" y="10" width="1" height="1" fill="rgb(0,0,0)" />
<rect x="8" y="10" width="1" height="1" fill="rgb(0,0,0)" />
<rect x="7" y="10" width="1" height="1" fill="rgb(0,0,0)" />
<rect x="6" y="10" width="1" height="1" fill="rgb(0,0,0)" />
<rect x="5" y="10" width="1" height="1" fill="rgb(0,0,0)" />
<rect x="4" y="10" width="1" height="1" fill="rgb(0,0,0)" />
<rect x="3" y="10" width="1" height="1" fill="rgb(0,0,0)" />
<rect x="2" y="10" width="1" height="1" fill="rgb(0,0,0)" />
<rect x="2" y="11" width="1" height="1" fill="rgb(0,0,0)" />
<rect x="3" y="11" width="1" height="1" fill="rgb(0,0,0)" />
<rect x="3" y="12" width="1" height="1" fill="rgb(0,0,0)" />
<rect x="2" y="12" width="1" height="1" fill="rgb(0,0,0)" />
<rect x="2" y="13" width="1" height="1" fill="rgb(0,0,0)" />
<rect x="3" y="13" width="1" height="1" fill="rgb(0,0,0)" />
<rect x="4" y="13" width="1" height="1" fill="rgb(0,0,0)" />
<rect x="5" y="13" width="1" height="1" fill="rgb(0,0,0)" />
<rect x="6" y="13" width="1" height="1" fill="rgb(0,0,0)" />
<rect x="7" y="13" width="1" height="1" fill="rgb(0,0,0)" />
<rect x="7" y="14" width="1" height="1" fill="rgb(0,0,0)" />
<rect x="6" y="14" width="1" height="1" fill="rgb(0,0,0)" />
<rect x="5" y="14" width="1" height="1" fill="rgb(0,0,0)" />
<rect x="4" y="14" width="1" height="1" fill="rgb(0,0,0)" />
<rect x="3" y="14" width="1" height="1" fill="rgb(0,0,0)" />
<rect x="2" y="14" width="1" height="1" fill="rgb(0,0,0)" />
<rect x="2" y="15" width="1" height="1" fill="rgb(0,0,0)" />
<rect x="3" y="15" width="1" height="1" fill="rgb(0,0,0)" />
<rect x="3" y="16" width="1" height="1" fill="rgb(0,0,0)" />
<rect x="2" y="16" width="1" height="1" fill="rgb(0,0,0)" />
<rect x="2" y="17" width="1" height="1" fill="rgb(0,0,0)" />
<rect x="3" y="17" width="1" height="1" fill="rgb(0,0,0)" />
<rect x="4" y="17" width="1" height="1" fill="rgb(0,0,0)" />
<rect x="5" y="17" width="1" height="1" fill="rgb(0,0,0)" />
<rect x="6" y="17" width="1" height="1" fill="rgb(0,0,0)" />
<rect x="7" y="17" width="1" height="1" fill="rgb(0,0,0)" />
<rect x="8" y="17" width="1" height="1" fill="rgb(0,0,0)" />
<rect x="9" y="17" width="1" height="1" fill="rgb(0,0,0)" />
<rect x="9" y="18" width="1" height="1" fill="rgb(0,0,0)" />
<rect x="8" y="18" width="1" height="1" fill="rgb(0,0,0)" />
<rect x="7" y="18" width="1" height="1" fill="rgb(0,0,0)" />
<rect x="6" y="18" width="1" height="1" fill="rgb(0,0,0)" />
<rect x="5" y="18" width="1" height="1" fill="rgb(0,0,0)" />
<rect x="4" y="18" width="1" height="1" fill="rgb(0,0,0)" />
<rect x="3" y="18" width="1" height="1" fill="rgb(0,0,0)" />
<rect x="2" y="18" width="1" height="1" fill="rgb(0,0,0)" />
<rect x="12" y="9" width="1" height="1" fill="rgb(0,0,0)" />
<rect x="13" y="9" width="1" height="1" fill="rgb(0,0,0)" />
<rect x="13" y="10" width="1" height="1" fill="rgb(0,0,0)" />
<rect x="12" y="10" width="1" height="1" fill="rgb(0,0,0)" />
<rect x="12" y="11" width="1" height="1" fill="rgb(0,0,0)" />
<rect x="13" y="11" width="1" height="1" fill="rgb(0,0,0)" />
<rect x="13" y="12" width="1" height="1" fill="rgb(0,0,0)" />
<rect x="12" y="12" width="1" height="1" fill="rgb(0,0,0)" />
<rect x="12" y="13" width="1" height="1" fill="rgb(0,0,0)" />
<rect x="13" y="13" width="1" height="1" fill="rgb(0,0,0)" />
<rect x="13" y="14" width="1" height="1" fill="rgb(0,0,0)" />
<rect x="12" y="14" width="1" height="1" fill="rgb(0,0,0)" />
<rect x="12" y="15" width="1" height="1" fill="rgb(0,0,0)" />
<rect x="13" y="15" width="1" height="1" fill="rgb(0,0,0)" />
<rect x="13" y="16" width="1" height="1" fill="rgb(0,0,0)" />
<rect x="12" y="16" width="1" height="1" fill="rgb(0,0,0)" />
<rect x="12" y="17" width="1" height="1" fill="rgb(0,0,0)" />
<rect x="13" y="17" width="1" height="1" fill="rgb(0,0,0)" />
<rect x="13" y="18" width="1" height="1" fill="rgb(0,0,0)" />
<rect x="12" y="18" width="1" height="1" fill="rgb(0,0,0)" />
<rect x="16" y="9" width="1" height="1" fill="rgb(0,0,0)" />
<rect x="17" y="9" width="1" height="1" fill="rgb(0,0,0)" />
<rect x="17" y="10" width="1" height="1" fill="rgb(0,0,0)" />
<rect x="16" y="10" width="1" height="1" fill="rgb(0,0,0)" />
<rect x="16" y="11" width="1" height="1" fill="rgb(0,0,0)" />
<rect x="17" y="11" width="1" height="1" fill="rgb(0,0,0)" />
<rect x="18" y="11" width="1" height="1" fill="rgb(0,0,0)" />
<rect x="19" y="11" width="1" height="1" fill="rgb(0,0,0)" />
<rect x="19" y="12" width="1" height="1" fill="rgb(0,0,0)" />
<rect x="18" y="12" width="1" height="1" fill="rgb(0,0,0)" />
<rect x="17" y="12" width="1" height="1" fill="rgb(0,0,0)" />
<rect x="16" y="12" width="1" height="1" fill="rgb(0,0,0)" />
<rect x="16" y="13" width="1" height="1" fill="rgb(0,0,0)" />
<rect x="17" y="13" width="1" height="1" fill="rgb(0,0,0)" />
<rect x="17" y="14" width="1" height="1" fill="rgb(0,0,0)" />
<rect x="16" y="14" width="1" height="1" fill="rgb(0,0,0)" />
<rect x="16" y="15" width="1" height="1" fill="rgb(0,0,0)" />
<rect x="17" y="15" width="1" height="1" fill="rgb(0,0,0)" />
<rect x="17" y="16" width="1" height="1" fill="rgb(0,0,0)" />
<rect x="16" y="16" width="1" height="1" fill="rgb(0,0,0)" />
<rect x="16" y="17" width="1" height="1" fill="rgb(0,0,0)" />
<rect x="17" y="17" width="1" height="1" fill="rgb(0,0,0)" />
<rect x="17" y="18" width="1" height="1" fill="rgb(0,0,0)" />
<rect x="16" y="18" width="1" height="1" fill="rgb(0,0,0)" />
<rect x="24" y="9" width="1" height="1" fill="rgb(0,0,0)" />
<rect x="25" y="9" width="1" height="1" fill="rgb(0,0,0)" />
<rect x="25" y="10" width="1" height="1" fill="rgb(0,0,0)" />
<rect x="24" y="10" width="1" height="1" fill="rgb(0,0,0)" />
<rect x="24" y="11" width="1" height="1" fill="rgb(0,0,0)" />
<rect x="23" y="11" width="1" height="1" fill="rgb(0,0,0)" />
<rect x="22" y="11" width="1" height="1" fill="rgb(0,0,0)" />
<rect x="22" y="12" width="1" height="1" fill="rgb(0,0,0)" />
<rect x="23" y="12" width="1" height="1" fill="rgb(0,0,0)" />
<rect x="24" y="12" width="1" height="1" fill="rgb(0,0,0)" />
<rect x="25" y="12" width="1" height="1" fill="rgb(0,0,0)" />
<rect x="25" y="11" width="1" height="1" fill="rgb(0,0,0)" />
<rect x="25" y="13" width="1" height="1" fill="rgb(0,0,0)" />
<rect x="24" y="13" width="1" height="1" fill="rgb(0,0,0)" />
<rect x="24" y="14" width="1" height="1" fill="rgb(0,0,0)" />
<rect x="25" y="14" width="1" height="1" fill="rgb(0,0,0)" />
<rect x="25" y="15" width="1" height="1" fill="rgb(0,0,0)" />
<rect x="24" y="15" width="1" height="1" fill="rgb(0,0,0)" />
<rect x="24" y="16" width="1" height="1" fill="rgb(0,0,0)" />
<rect x="25" y="16" width="1" height="1" fill="rgb(0,0,0)" />
<rect x="25" y="17" width="1" height="1" fill="rgb(0,0,0)" />
<rect x="24" y="17" width="1" height="1" fill="rgb(0,0,0)" />
<rect x="24" y="18" width="1" height="1" fill="rgb(0,0,0)" />
<rect x="25" y="18" width="1" height="1" fill="rgb(0,0,0)" />
<rect x="28" y="9" width="1" height="1" fill="rgb(0,0,0)" />
<rect x="29" y="9" width="1" height="1" fill="rgb(0,0,0)" />
<rect x="29" y="10" width="1" height="1" fill="rgb(0,0,0)" />
<rect x="28" y="10" width="1" height="1" fill="rgb(0,0,0)" />
<rect x="28" y="11" width="1" height="1" fill="rgb(0,0,0)" />
<rect x="29" y="11" width="1" height="1" fill="rgb(0,0,0)" />
<rect x="29" y="12" width="1" height="1" fill="rgb(0,0,0)" />
<rect x="28" y="12" width="1" height="1" fill="rgb(0,0,0)" />
<rect x="28" y="13" width="1" height="1" fill="rgb(0,0,0)" />
<rect x="29" y="13" width="1" height="1" fill="rgb(0,0,0)" />
<rect x="29" y="14" width="1" height="1" fill="rgb(0,0,0)" />
<rect x="28" y="14" width="1" height="1" fill="rgb(0,0,0)" />
<rect x="28" y="15" width="1" height="1" fill="rgb(0,0,0)" />
<rect x="29" y="15" width="1" height="1" fill="rgb(0,0,0)" />
<rect x="29" y="16" width="1" height="1" fill="rgb(0,0,0)" />
<rect x="28" y="16" width="1" height="1" fill="rgb(0,0,0)" />
<rect x="28" y="17" width="1" height="1" fill="rgb(0,0,0)" />
<rect x="29" y="17" width="1" height="1" fill="rgb(0,0,0)" />
<rect x="29" y="18" width="1" height="1" fill="rgb(0,0,0)" />
<rect x="28" y="18" width="1" height="1" fill="rgb(0,0,0)" />
<rect x="20" y="13" width="1" height="1" fill="rgb(0,0,0)" />
<rect x="21" y="13" width="1" height="1" fill="rgb(0,0,0)" />
<rect x="21" y="14" width="1" height="1" fill="rgb(0,0,0)" />
<rect x="20" y="14" width="1" height="1" fill="rgb(0,0,0)" />
<rect x="4" y="20" width="1" height="1" fill="rgb(0,0,0)" />
<rect x="5" y="20" width="1" height="1" fill="rgb(0,0,0)" />
<rect x="6" y="20" width="1" height="1" fill="rgb(0,0,0)" />
<rect x="7" y="20" width="1" height="1" fill="rgb(0,0,0)" />
<rect x="7" y="21" width="1" height="1" fill="rgb(0,0,0)" />
<rect x="6" y="21" width="1" height="1" fill="rgb(0,0,0)" />
<rect x="5" y="21" width="1" height="1" fill="rgb(0,0,0)" />
<rect x="4" y="21" width="1" height="1" fill="rgb(0,0,0)" />
<rect x="12" y="20" width="1" height="1" fill="rgb(0,0,0)" />
<rect x="13" y="20" width="1" height="1" fill="rgb(0,0,0)" />
<rect x="13" y="21" width="1" height="1" fill="rgb(0,0,0)" />
<rect x="12" y="21" width="1" height="1" fill="rgb(0,0,0)" />
<rect x="12" y="22" width="1" height="1" fill="rgb(0,0,0)" />
<rect x="13" y="22" width="1" height="1" fill="rgb(0,0,0)" />
<rect x="14" y="22" width="1" height="1" fill="rgb(0,0,0)" />
<rect x="15" y="22" width="1" height="1" fill="rgb(0,0,0)" />
<rect x="15" y="23" width="1" height="1" fill="rgb(0,0,0)" />
<rect x="14" y="23" width="1" height="1" fill="rgb(0,0,0)" />
<rect x="13" y="23" width="1" height="1" fill="rgb(0,0,0)" />
<rect x="12" y="23" width="1" height="1" fill="rgb(0,0,0)" />
<rect x="12" y="24" width="1" height="1" fill="rgb(0,0,0)" />
<rect x="13" y="24" width="1" height="1" fill="rgb(0,0,0)" />
<rect x="13" y="25" width="1" height="1" fill="rgb(0,0,0)" />
<rect x="12" y="25" width="1" height="1" fill="rgb(0,0,0)" />
<rect x="12" y="26" width="1" height="1" fill="rgb(0,0,0)" />
<rect x="13" y="26" width="1" height="1" fill="rgb(0,0,0)" />
<rect x="13" y="27" width="1" height="1" fill="rgb(0,0,0)" />
<rect x="12" y="27" width="1" height="1" fill="rgb(0,0,0)" />
<rect x="12" y="28" width="1" height="1" fill="rgb(0,0,0)" />
<rect x="13" y="28" width="1" height="1" fill="rgb(0,0,0)" />
<rect x="13" y="29" width="1" height="1" fill="rgb(0,0,0)" />
<rect x="12" y="29" width="1" height="1" fill="rgb(0,0,0)" />
<rect x="18" y="20" width="1" height="1" fill="rgb(0,0,0)" />
<rect x="19" y="20" width="1" height="1" fill="rgb(0,0,0)" />
<rect x="19" y="21" width="1" height="1" fill="rgb(0,0,0)" />
<rect x="18" y="21" width="1" height="1" fill="rgb(0,0,0)" />
<rect x="18" y="22" width="1" height="1" fill="rgb(0,0,0)" />
<rect x="19" y="22" width="1" height="1" fill="rgb(0,0,0)" />
<rect x="19" y="23" width="1" height="1" fill="rgb(0,0,0)" />
<rect x="18" y="23" width="1" height="1" fill="rgb(0,0,0)" />
<rect x="18" y="24" width="1" height="1" fill="rgb(0,0,0)" />
<rect x="17" y="24" width="1" height="1" fill="rgb(0,0,0)" />
<rect x="16" y="24" width="1" height="1" fill="rgb(0,0,0)" />
<rect x="16" y="25" width="1" height="1" fill="rgb(0,0,0)" />
<rect x="17" y="25" width="1" height="1" fill="rgb(0,0,0)" />
<rect x="18" y="25" width="1" height="1" fill="rgb(0,0,0)" />
<rect x="19" y="25" width="1" height="1" fill="rgb(0,0,0)" />
<rect x="19" y="24" width="1" height="1" fill="rgb(0,0,0)" />
<rect x="19" y="26" width="1" height="1" fill="rgb(0,0,0)" />
<rect x="18" y="26" width="1" height="1" fill="rgb(0,0,0)" />
<rect x="18" y="27" width="1" height="1" fill="rgb(0,0,0)" />
<rect x="19" y="27" width="1" height="1" fill="rgb(0,0,0)" />
<rect x="19" y="28" width="1" height="1" fill="rgb(0,0,0)" />
<rect x="18" y="28" width="1" height="1" fill="rgb(0,0,0)" />
<rect x="18" y="29" width="1" height="1" fill="rgb(0,0,0)" />
<rect x="19" y="29" width="1" height="1" fill="rgb(0,0,0)" />
<rect x="24" y="20" width="1" height="1" fill="rgb(0,0,0)" />
<rect x="25" y="20" width="1" height="1" fill="rgb(0,0,0)" />
<rect x="26" y="20" width="1" height="1" fill="rgb(0,0,0)" />
<rect x="27" y="20" width="1" height="1" fill="rgb(0,0,0)" />
<rect x="28" y="20" width="1" height="1" fill="rgb(0,0,0)" />
<rect x="29" y="20" width="1" height="1" fill="rgb(0,0,0)" />
<rect x="29" y="21" width="1" height="1" fill="rgb(0,0,0)" />
<rect x="28" y="21" width="1" height="1" fill="rgb(0,0,0)" />
<rect x="27" y="21" width="1" height="1" fill="rgb(0,0,0)" />
<rect x="26" y="21" width="1" height="1" fill="rgb(0,0,0)" />
<rect x="25" y="21" width="1" height="1" fill="rgb(0,0,0)" />
<rect x="24" y="21" width="1" height="1" fill="rgb(0,0,0)" />
<rect x="2" y="22" width="1" height="1" fill="rgb(0,0,0)" />
<rect x="3" y="22" width="1" height="1" fill="rgb(0,0,0)" />
<rect x="3" y="23" width="1" height="1" fill="rgb(0,0,0)" />
<rect x="2" y="23" width="1" height="1" fill="rgb(0,0,0)" />
<rect x="2" y="24" width="1" height="1" fill="rgb(0,0,0)" />
<rect x="3" y="24" width="1" height="1" fill="rgb(0,0,0)" />
<rect x="3" y="25" width="1" height="1" fill="rgb(0,0,0)" />
<rect x="2" y="25" width="1" height="1" fill="rgb(0,0,0)" />
<rect x="2" y="26" width="1" height="1" fill="rgb(0,0,0)" />
<rect x="3" y="26" width="1" height="1" fill="rgb(0,0,0)" />
<rect x="3" y="27" width="1" height="1" fill="rgb(0,0,0)" />
<rect x="2" y="27" width="1" height="1" fill="rgb(0,0,0)" />
<rect x="8" y="22" width="1" height="1" fill="rgb(0,0,0)" />
<rect x="9" y="22" width="1" height="1" fill="rgb(0,0,0)" />
<rect x="9" y="23" width="1" height="1" fill="rgb(0,0,0)" />
<rect x="8" y="23" width="1" height="1" fill="rgb(0,0,0)" />
<rect x="22" y="22" width="1" height="1" fill="rgb(0,0,0)" />
<rect x="23" y="22" width="1" height="1" fill="rgb(0,0,0)" />
<rect x="23" y="23" width="1" height="1" fill="rgb(0,0,0)" />
<rect x="22" y="23" width="1" height="1" fill="rgb(0,0,0)" />
<rect x="24" y="24" width="1" height="1" fill="rgb(0,0,0)" />
<rect x="25" y="24" width="1" height="1" fill="rgb(0,0,0)" />
<rect x="26" y="24" width="1" height="1" fill="rgb(0,0,0)" />
<rect x="27" y="24" width="1" height="1" fill="rgb(0,0,0)" />
<rect x="27" y="25" width="1" height="1" fill="rgb(0,0,0)" />
<rect x="26" y="25" width="1" height="1" fill="rgb(0,0,0)" />
<rect x="25" y="25" width="1" height="1" fill="rgb(0,0,0)" />
<rect x="24" y="25" width="1" height="1" fill="rgb(0,0,0)" />
<rect x="8" y="26" width="1" height="1" fill="rgb(0,0,0)" />
<rect x="9" y="26" width="1" height="1" fill="rgb(0,0,0)" />
<rect x="9" y="27" width="1" height="1" fill="rgb(0,0,0)" />
<rect x="8" y="27" width="1" height="1" fill="rgb(0,0,0)" />
<rect x="28" y="26" width="1" height="1" fill="rgb(0,0,0)" />
<rect x="29" y="26" width="1" height="1" fill="rgb(0,0,0)" />
<rect x="29" y="27" width="1" height="1" fill="rgb(0,0,0)" />
<rect x="28" y="27" width="1" height="1" fill="rgb(0,0,0)" />
<rect x="4" y="28" width="1" height="1" fill="rgb(0,0,0)" />
<rect x="5" y="28" width="1" height="1" fill="rgb(0,0,0)" />
<rect x="6" y="28" width="1" height="1" fill="rgb(0,0,0)" />
<rect x="7" y="28" width="1" height="1" fill="rgb(0,0,0)" />
<rect x="7" y="29" width="1" height="1" fill="rgb(0,0,0)" />
<rect x="6" y="29" width="1" height="1" fill="rgb(0,0,0)" />
<rect x="5" y="29" width="1" height="1" fill="rgb(0,0,0)" />
<rect x="4" y="29" width="1" height="1" fill="rgb(0,0,0)" />
<rect x="22" y="28" width="1" height="1" fill="rgb(0,0,0)" />
<rect x="23" y="28" width="1" height="1" fill="rgb(0,0,0)" />
<rect x="24" y="28" width="1" height="1" fill="rgb(0,0,0)" />
<rect x="25" y="28" width="1" height="1" fill="rgb(0,0,0)" />
<rect x="26" y="28" width="1" height="1" fill="rgb(0,0,0)" />
<rect x="27" y="28" width="1" height="1" fill="rgb(0,0,0)" />
<rect x="27" y="29" width="1" height="1" fill="rgb(0,0,0)" />
<rect x="26" y="29" width="1" height="1" fill="rgb(0,0,0)" />
<rect x="25" y="29" width="1" height="1" fill="rgb(0,0,0)" />
<rect x="24" y="29" width="1" height="1" fill="rgb(0,0,0)" />
<rect x="23" y="29" width="1" height="1" fill="rgb(0,0,0)" />
<rect x="22" y="29" width="1" height="1" fill="rgb(0,0,0)" />
</svg>